<svg xmlns="http://www.w3.org/2000/svg" width="60" height="100" viewBox="0 0 60 100">
  <!-- 赛车主体 -->
  <rect x="10" y="20" width="40" height="70" rx="8" fill="#e74c3c" stroke="#c0392b" stroke-width="2"/>
  
  <!-- 车窗 -->
  <rect x="15" y="25" width="30" height="20" rx="3" fill="#3498db" stroke="#2980b9" stroke-width="1"/>
  
  <!-- 车灯 -->
  <rect x="15" y="85" width="10" height="5" rx="2" fill="#f1c40f"/>
  <rect x="35" y="85" width="10" height="5" rx="2" fill="#f1c40f"/>
  
  <!-- 车轮 -->
  <circle cx="15" cy="70" r="8" fill="#333333" stroke="#2c3e50" stroke-width="2"/>
  <circle cx="15" cy="70" r="3" fill="#7f8c8d"/>
  <circle cx="45" cy="70" r="8" fill="#333333" stroke="#2c3e50" stroke-width="2"/>
  <circle cx="45" cy="70" r="3" fill="#7f8c8d"/>
  
  <circle cx="15" cy="30" r="8" fill="#333333" stroke="#2c3e50" stroke-width="2"/>
  <circle cx="15" cy="30" r="3" fill="#7f8c8d"/>
  <circle cx="45" cy="30" r="8" fill="#333333" stroke="#2c3e50" stroke-width="2"/>
  <circle cx="45" cy="30" r="3" fill="#7f8c8d"/>
  
  <!-- 装饰条纹 -->
  <path d="M30 20 L30 90" stroke="#ffffff" stroke-width="2" stroke-dasharray="5,3"/>
  <path d="M20 50 L40 50" stroke="#ffffff" stroke-width="2"/>
  
  <!-- 车顶 -->
  <path d="M10 30 C10 15, 50 15, 50 30" fill="#c0392b"/>
</svg> 