<?xml version="1.0" encoding="UTF-8"?>
<svg width="300" height="200" viewBox="0 0 300 200" fill="none" xmlns="http://www.w3.org/2000/svg">
  <!-- 背景 -->
  <rect width="300" height="200" rx="10" fill="#E8F4F8"/>
  
  <!-- 单词拼图板 -->
  <rect x="60" y="30" width="180" height="140" rx="5" fill="white" stroke="#DDDDDD" stroke-width="2"/>
  
  <!-- 网格线 -->
  <line x1="60" y1="60" x2="240" y2="60" stroke="#DDDDDD" stroke-width="1"/>
  <line x1="60" y1="90" x2="240" y2="90" stroke="#DDDDDD" stroke-width="1"/>
  <line x1="60" y1="120" x2="240" y2="120" stroke="#DDDDDD" stroke-width="1"/>
  <line x1="60" y1="150" x2="240" y2="150" stroke="#DDDDDD" stroke-width="1"/>
  
  <line x1="90" y1="30" x2="90" y2="170" stroke="#DDDDDD" stroke-width="1"/>
  <line x1="120" y1="30" x2="120" y2="170" stroke="#DDDDDD" stroke-width="1"/>
  <line x1="150" y1="30" x2="150" y2="170" stroke="#DDDDDD" stroke-width="1"/>
  <line x1="180" y1="30" x2="180" y2="170" stroke="#DDDDDD" stroke-width="1"/>
  <line x1="210" y1="30" x2="210" y2="170" stroke="#DDDDDD" stroke-width="1"/>
  
  <!-- G -->
  <rect x="60" y="30" width="30" height="30" fill="#3498DB" stroke="#DDDDDD" stroke-width="1"/>
  <text x="75" y="50" font-family="Arial" font-size="16" font-weight="bold" fill="white" text-anchor="middle">G</text>
  
  <!-- A -->
  <rect x="90" y="30" width="30" height="30" fill="#E8F4F8" stroke="#DDDDDD" stroke-width="1"/>
  <text x="105" y="50" font-family="Arial" font-size="16" font-weight="bold" fill="#333" text-anchor="middle">A</text>
  
  <!-- M -->
  <rect x="120" y="30" width="30" height="30" fill="#E8F4F8" stroke="#DDDDDD" stroke-width="1"/>
  <text x="135" y="50" font-family="Arial" font-size="16" font-weight="bold" fill="#333" text-anchor="middle">M</text>
  
  <!-- E -->
  <rect x="150" y="30" width="30" height="30" fill="#E8F4F8" stroke="#DDDDDD" stroke-width="1"/>
  <text x="165" y="50" font-family="Arial" font-size="16" font-weight="bold" fill="#333" text-anchor="middle">E</text>
  
  <!-- A -->
  <rect x="90" y="60" width="30" height="30" fill="#2ECC71" stroke="#DDDDDD" stroke-width="1"/>
  <text x="105" y="80" font-family="Arial" font-size="16" font-weight="bold" fill="white" text-anchor="middle">P</text>
  
  <!-- P -->
  <rect x="90" y="90" width="30" height="30" fill="#2ECC71" stroke="#DDDDDD" stroke-width="1"/>
  <text x="105" y="110" font-family="Arial" font-size="16" font-weight="bold" fill="white" text-anchor="middle">P</text>
  
  <!-- P -->
  <rect x="90" y="120" width="30" height="30" fill="#2ECC71" stroke="#DDDDDD" stroke-width="1"/>
  <text x="105" y="140" font-family="Arial" font-size="16" font-weight="bold" fill="white" text-anchor="middle">L</text>
  
  <!-- L -->
  <rect x="90" y="150" width="30" height="30" fill="#2ECC71" stroke="#DDDDDD" stroke-width="1"/>
  <text x="105" y="170" font-family="Arial" font-size="16" font-weight="bold" fill="white" text-anchor="middle">E</text>
  
  <!-- P -->
  <rect x="150" y="60" width="30" height="30" fill="#F39C12" stroke="#DDDDDD" stroke-width="1"/>
  <text x="165" y="80" font-family="Arial" font-size="16" font-weight="bold" fill="white" text-anchor="middle">P</text>
  
  <!-- U -->
  <rect x="150" y="90" width="30" height="30" fill="#F39C12" stroke="#DDDDDD" stroke-width="1"/>
  <text x="165" y="110" font-family="Arial" font-size="16" font-weight="bold" fill="white" text-anchor="middle">U</text>
  
  <!-- Z -->
  <rect x="150" y="120" width="30" height="30" fill="#F39C12" stroke="#DDDDDD" stroke-width="1"/>
  <text x="165" y="140" font-family="Arial" font-size="16" font-weight="bold" fill="white" text-anchor="middle">Z</text>
  
  <!-- Z -->
  <rect x="150" y="150" width="30" height="30" fill="#F39C12" stroke="#DDDDDD" stroke-width="1"/>
  <text x="165" y="170" font-family="Arial" font-size="16" font-weight="bold" fill="white" text-anchor="middle">Z</text>
  
  <!-- Z -->
  <rect x="180" y="120" width="30" height="30" fill="#3498DB" stroke="#DDDDDD" stroke-width="1"/>
  <text x="195" y="140" font-family="Arial" font-size="16" font-weight="bold" fill="white" text-anchor="middle">L</text>
  
  <!-- L -->
  <rect x="180" y="150" width="30" height="30" fill="#3498DB" stroke="#DDDDDD" stroke-width="1"/>
  <text x="195" y="170" font-family="Arial" font-size="16" font-weight="bold" fill="white" text-anchor="middle">E</text>
  
  <!-- 标题 -->
  <text x="150" y="15" font-family="Arial" font-size="18" font-weight="bold" fill="#333" text-anchor="middle">Word Puzzle</text>
</svg> 