<?xml version="1.0" encoding="UTF-8"?>
<svg width="300" height="200" viewBox="0 0 300 200" fill="none" xmlns="http://www.w3.org/2000/svg">
  <!-- 背景 -->
  <rect width="300" height="200" rx="10" fill="#2C3E50"/>
  
  <!-- 背景图案 - 星星 -->
  <circle cx="40" cy="30" r="1" fill="white" opacity="0.8"/>
  <circle cx="70" cy="50" r="1" fill="white" opacity="0.6"/>
  <circle cx="100" cy="25" r="1" fill="white" opacity="0.7"/>
  <circle cx="130" cy="40" r="1" fill="white" opacity="0.8"/>
  <circle cx="160" cy="20" r="1" fill="white" opacity="0.6"/>
  <circle cx="190" cy="35" r="1" fill="white" opacity="0.7"/>
  <circle cx="220" cy="15" r="1" fill="white" opacity="0.8"/>
  <circle cx="250" cy="45" r="1" fill="white" opacity="0.6"/>
  <circle cx="280" cy="25" r="1" fill="white" opacity="0.7"/>
  
  <circle cx="50" cy="70" r="1" fill="white" opacity="0.7"/>
  <circle cx="90" cy="85" r="1" fill="white" opacity="0.6"/>
  <circle cx="130" cy="65" r="1" fill="white" opacity="0.8"/>
  <circle cx="170" cy="90" r="1" fill="white" opacity="0.7"/>
  <circle cx="210" cy="75" r="1" fill="white" opacity="0.6"/>
  <circle cx="250" cy="80" r="1" fill="white" opacity="0.8"/>
  
  <circle cx="30" cy="110" r="1" fill="white" opacity="0.6"/>
  <circle cx="70" cy="125" r="1" fill="white" opacity="0.8"/>
  <circle cx="110" cy="105" r="1" fill="white" opacity="0.7"/>
  <circle cx="150" cy="120" r="1" fill="white" opacity="0.6"/>
  <circle cx="190" cy="100" r="1" fill="white" opacity="0.8"/>
  <circle cx="230" cy="115" r="1" fill="white" opacity="0.7"/>
  <circle cx="270" cy="95" r="1" fill="white" opacity="0.6"/>
  
  <!-- 魔法师 -->
  <path d="M150 130 L140 90 L160 90 Z" fill="#9B59B6"/>
  <circle cx="150" cy="80" r="15" fill="#9B59B6"/>
  <path d="M140 80 L130 70 M160 80 L170 70" stroke="#E0E0E0" stroke-width="2"/>
  <circle cx="145" cy="75" r="2" fill="#E0E0E0"/>
  <circle cx="155" cy="75" r="2" fill="#E0E0E0"/>
  
  <!-- 魔法杖 -->
  <path d="M180 90 L200 70" stroke="#F1C40F" stroke-width="3"/>
  <circle cx="205" cy="65" r="5" fill="#F1C40F"/>
  
  <!-- 魔法光芒 -->
  <circle cx="205" cy="65" r="10" fill="#F1C40F" opacity="0.3"/>
  <circle cx="205" cy="65" r="15" fill="#F1C40F" opacity="0.1"/>
  
  <!-- 魔法书 -->
  <rect x="90" y="100" width="30" height="25" fill="#3498DB"/>
  <rect x="90" y="100" width="30" height="5" fill="#2980B9"/>
  <path d="M95 110 L115 110 M95 115 L110 115 M95 120 L105 120" stroke="#E0E0E0" stroke-width="1"/>
  
  <!-- 魔法药水 -->
  <path d="M230 115 L240 115 L238 100 L232 100 Z" fill="#27AE60"/>
  <rect x="233" y="95" width="4" height="5" fill="#1E8449"/>
  <circle cx="235" cy="108" r="2" fill="#E0E0E0" opacity="0.8"/>
  
  <!-- 魔法符文 -->
  <circle cx="150" cy="110" r="20" fill="none" stroke="#F1C40F" stroke-width="1"/>
  <path d="M140 100 L160 120 M140 120 L160 100" stroke="#F1C40F" stroke-width="1"/>
  <circle cx="150" cy="110" r="3" fill="#F1C40F"/>
  
  <!-- 标题 -->
  <text x="150" y="155" font-family="Arial" font-size="24" font-weight="bold" fill="white" text-anchor="middle">Magic Quest</text>
</svg> 