<svg width="300" height="200" viewBox="0 0 300 200" xmlns="http://www.w3.org/2000/svg">
  <!-- 天空和雪山背景 -->
  <defs>
    <linearGradient id="skyGradient" x1="0%" y1="0%" x2="0%" y2="100%">
      <stop offset="0%" style="stop-color:#1E3C72" />
      <stop offset="100%" style="stop-color:#2A5298" />
    </linearGradient>
    <linearGradient id="snowGradient" x1="0%" y1="0%" x2="0%" y2="100%">
      <stop offset="0%" style="stop-color:#FFFFFF" />
      <stop offset="100%" style="stop-color:#E1E6EC" />
    </linearGradient>
  </defs>
  
  <!-- 背景 -->
  <rect width="300" height="200" fill="url(#skyGradient)" />
  
  <!-- 雪山 -->
  <path d="M0,200 L0,120 L50,80 L80,100 L120,65 L160,90 L200,60 L240,85 L300,40 L300,200 Z" fill="url(#snowGradient)" />
  <path d="M0,200 L0,140 L40,120 L80,130 L130,110 L180,125 L240,105 L300,130 L300,200 Z" fill="white" opacity="0.8" />
  
  <!-- 小雪花 -->
  <g fill="white">
    <circle cx="30" cy="30" r="1.5" />
    <circle cx="80" cy="20" r="1" />
    <circle cx="140" cy="40" r="1.5" />
    <circle cx="200" cy="25" r="1" />
    <circle cx="250" cy="50" r="1.5" />
    <circle cx="70" cy="60" r="1" />
    <circle cx="170" cy="35" r="1" />
    <circle cx="220" cy="55" r="1.5" />
  </g>
  
  <!-- 滑雪者 -->
  <g transform="translate(150, 120) rotate(15)">
    <!-- 滑雪者身体 -->
    <rect x="-6" y="-15" width="12" height="25" fill="#F44336" rx="2" />
    <!-- 头部 -->
    <circle cx="0" cy="-20" r="5" fill="#FFD54F" />
    <!-- 滑雪板 -->
    <rect x="-20" y="10" width="40" height="4" fill="#424242" rx="2" />
    <!-- 滑雪杖 -->
    <line x1="-8" y1="-5" x2="-20" y2="5" stroke="#9E9E9E" stroke-width="2" />
    <line x1="8" y1="-5" x2="20" y2="5" stroke="#9E9E9E" stroke-width="2" />
  </g>
  
  <!-- 第二个滑雪者（远处） -->
  <g transform="translate(80, 100) rotate(20) scale(0.7)">
    <!-- 滑雪者身体 -->
    <rect x="-6" y="-15" width="12" height="25" fill="#2196F3" rx="2" />
    <!-- 头部 -->
    <circle cx="0" cy="-20" r="5" fill="#FFD54F" />
    <!-- 滑雪板 -->
    <rect x="-20" y="10" width="40" height="4" fill="#424242" rx="2" />
    <!-- 滑雪杖 -->
    <line x1="-8" y1="-5" x2="-20" y2="5" stroke="#9E9E9E" stroke-width="2" />
    <line x1="8" y1="-5" x2="20" y2="5" stroke="#9E9E9E" stroke-width="2" />
  </g>
  
  <!-- 雪道轨迹 -->
  <path d="M80,100 Q120,130 150,120 T220,150" stroke="white" stroke-width="2" fill="none" opacity="0.7" />
  <path d="M80,105 Q120,135 150,125 T220,155" stroke="white" stroke-width="2" fill="none" opacity="0.7" />
</svg> 