<?xml version="1.0" encoding="UTF-8"?>
<svg width="300" height="200" viewBox="0 0 300 200" fill="none" xmlns="http://www.w3.org/2000/svg">
  <!-- 背景 -->
  <rect width="300" height="200" rx="10" fill="#4A235A"/>
  
  <!-- 神秘城堡轮廓 -->
  <path d="M100 150 L100 90 L130 70 L150 90 L170 70 L200 90 L200 150 Z" fill="#7D3C98" stroke="#333" stroke-width="1"/>
  
  <!-- 窗户 -->
  <rect x="115" y="100" width="15" height="20" rx="2" fill="#333"/>
  <rect x="170" y="100" width="15" height="20" rx="2" fill="#333"/>
  
  <!-- 城堡门 -->
  <rect x="140" y="120" width="20" height="30" rx="2" fill="#333"/>
  
  <!-- 塔尖 -->
  <polygon points="130,70 130,50 140,40 150,50 150,70" fill="#7D3C98" stroke="#333" stroke-width="1"/>
  <polygon points="170,70 170,50 160,40 150,50 150,70" fill="#7D3C98" stroke="#333" stroke-width="1"/>
  
  <!-- 月亮 -->
  <circle cx="240" cy="40" r="15" fill="#F1C40F"/>
  <circle cx="230" cy="35" r="15" fill="#4A235A"/>
  
  <!-- 角色 -->
  <circle cx="90" cy="145" r="15" fill="#E74C3C"/>
  <circle cx="90" cy="133" r="8" fill="#E74C3C"/>
  <ellipse cx="90" cy="150" rx="10" ry="5" fill="#E74C3C"/>
  <circle cx="86" cy="130" r="2" fill="white"/>
  <circle cx="94" cy="130" r="2" fill="white"/>
  <path d="M87 136 Q90 138 93 136" stroke="white" stroke-width="1" fill="none"/>
  
  <circle cx="210" cy="145" r="15" fill="#2ECC71"/>
  <circle cx="210" cy="133" r="8" fill="#2ECC71"/>
  <ellipse cx="210" cy="150" rx="10" ry="5" fill="#2ECC71"/>
  <circle cx="206" cy="130" r="2" fill="white"/>
  <circle cx="214" cy="130" r="2" fill="white"/>
  <path d="M207 136 Q210 138 213 136" stroke="white" stroke-width="1" fill="none"/>
  
  <!-- 标题 -->
  <text x="150" y="185" font-family="Arial" font-size="24" font-weight="bold" fill="white" text-anchor="middle">Mystery Manor</text>
</svg> 