<?xml version="1.0" encoding="UTF-8"?>
<svg width="800" height="400" viewBox="0 0 800 400" fill="none" xmlns="http://www.w3.org/2000/svg">
  <!-- 背景 - 夜晚 -->
  <rect width="800" height="400" fill="#1A237E"/>
  
  <!-- 星星 -->
  <circle cx="50" cy="50" r="2" fill="white" opacity="0.8"/>
  <circle cx="150" cy="70" r="2" fill="white" opacity="0.8"/>
  <circle cx="250" cy="40" r="2" fill="white" opacity="0.8"/>
  <circle cx="350" cy="80" r="2" fill="white" opacity="0.8"/>
  <circle cx="450" cy="30" r="2" fill="white" opacity="0.8"/>
  <circle cx="550" cy="60" r="2" fill="white" opacity="0.8"/>
  <circle cx="650" cy="35" r="2" fill="white" opacity="0.8"/>
  <circle cx="750" cy="75" r="2" fill="white" opacity="0.8"/>
  <circle cx="100" cy="100" r="2" fill="white" opacity="0.8"/>
  <circle cx="200" cy="120" r="2" fill="white" opacity="0.8"/>
  <circle cx="300" cy="90" r="2" fill="white" opacity="0.8"/>
  <circle cx="400" cy="110" r="2" fill="white" opacity="0.8"/>
  <circle cx="500" cy="85" r="2" fill="white" opacity="0.8"/>
  <circle cx="600" cy="105" r="2" fill="white" opacity="0.8"/>
  <circle cx="700" cy="95" r="2" fill="white" opacity="0.8"/>
  
  <!-- 月亮 -->
  <circle cx="680" cy="80" r="40" fill="#F5F5F5"/>
  <circle cx="660" cy="70" r="35" fill="#1A237E"/>
  
  <!-- 远景山丘 -->
  <path d="M0 220 Q 100 180 200 210 Q 300 240 400 190 Q 500 160 600 210 Q 700 250 800 200 L 800 400 L 0 400 Z" fill="#1B5E20" opacity="0.5"/>
  
  <!-- 地面 -->
  <rect y="240" width="800" height="160" fill="#33691E"/>
  
  <!-- 建筑1 - 摩天大楼 (夜晚照明) -->
  <rect x="100" y="80" width="80" height="160" fill="#424242"/>
  <!-- 窗户灯光 -->
  <rect x="110" y="90" width="15" height="20" fill="#FFEB3B" opacity="0.8"/>
  <rect x="135" y="90" width="15" height="20" fill="#FFEB3B" opacity="0.8"/>
  <rect x="155" y="90" width="15" height="20" fill="#FFEB3B" opacity="0.8"/>
  <rect x="110" y="120" width="15" height="20" fill="#FFEB3B" opacity="0.6"/>
  <rect x="135" y="120" width="15" height="20" fill="#FFEB3B" opacity="0.8"/>
  <rect x="155" y="120" width="15" height="20" fill="#FFEB3B" opacity="0.7"/>
  <rect x="110" y="150" width="15" height="20" fill="#FFEB3B" opacity="0.7"/>
  <rect x="135" y="150" width="15" height="20" fill="#FFEB3B" opacity="0.6"/>
  <rect x="155" y="150" width="15" height="20" fill="#FFEB3B" opacity="0.8"/>
  <rect x="110" y="180" width="15" height="20" fill="#FFEB3B" opacity="0.8"/>
  <rect x="135" y="180" width="15" height="20" fill="#FFEB3B" opacity="0.7"/>
  <rect x="155" y="180" width="15" height="20" fill="#FFEB3B" opacity="0.6"/>
  <rect x="110" y="210" width="15" height="20" fill="#FFEB3B" opacity="0.6"/>
  <rect x="135" y="210" width="15" height="20" fill="#FFEB3B" opacity="0.8"/>
  <rect x="155" y="210" width="15" height="20" fill="#FFEB3B" opacity="0.7"/>
  
  <!-- 建筑2 - 豪华写字楼 -->
  <rect x="220" y="110" width="130" height="130" fill="#263238"/>
  <!-- 窗户灯光 -->
  <rect x="230" y="120" width="20" height="30" fill="#64B5F6" opacity="0.8"/>
  <rect x="260" y="120" width="20" height="30" fill="#64B5F6" opacity="0.7"/>
  <rect x="290" y="120" width="20" height="30" fill="#64B5F6" opacity="0.6"/>
  <rect x="320" y="120" width="20" height="30" fill="#64B5F6" opacity="0.8"/>
  <rect x="230" y="160" width="20" height="30" fill="#64B5F6" opacity="0.6"/>
  <rect x="260" y="160" width="20" height="30" fill="#64B5F6" opacity="0.8"/>
  <rect x="290" y="160" width="20" height="30" fill="#64B5F6" opacity="0.7"/>
  <rect x="320" y="160" width="20" height="30" fill="#64B5F6" opacity="0.6"/>
  <rect x="230" y="200" width="20" height="30" fill="#64B5F6" opacity="0.7"/>
  <rect x="260" y="200" width="20" height="30" fill="#64B5F6" opacity="0.6"/>
  <rect x="290" y="200" width="20" height="30" fill="#64B5F6" opacity="0.8"/>
  <rect x="320" y="200" width="20" height="30" fill="#64B5F6" opacity="0.7"/>
  <!-- 顶部标志 -->
  <rect x="270" y="80" width="30" height="30" fill="#FF6D00" opacity="0.8"/>
  
  <!-- 建筑3 - 高级酒店 -->
  <rect x="390" y="40" width="70" height="200" fill="#212121"/>
  <!-- 窗户灯光 -->
  <rect x="400" y="50" width="10" height="15" fill="#FFA000" opacity="0.8"/>
  <rect x="420" y="50" width="10" height="15" fill="#FFA000" opacity="0.7"/>
  <rect x="440" y="50" width="10" height="15" fill="#FFA000" opacity="0.6"/>
  <rect x="400" y="75" width="10" height="15" fill="#FFA000" opacity="0.7"/>
  <rect x="420" y="75" width="10" height="15" fill="#FFA000" opacity="0.8"/>
  <rect x="440" y="75" width="10" height="15" fill="#FFA000" opacity="0.7"/>
  <rect x="400" y="100" width="10" height="15" fill="#FFA000" opacity="0.6"/>
  <rect x="420" y="100" width="10" height="15" fill="#FFA000" opacity="0.7"/>
  <rect x="440" y="100" width="10" height="15" fill="#FFA000" opacity="0.8"/>
  <rect x="400" y="125" width="10" height="15" fill="#FFA000" opacity="0.8"/>
  <rect x="420" y="125" width="10" height="15" fill="#FFA000" opacity="0.6"/>
  <rect x="440" y="125" width="10" height="15" fill="#FFA000" opacity="0.7"/>
  <rect x="400" y="150" width="10" height="15" fill="#FFA000" opacity="0.7"/>
  <rect x="420" y="150" width="10" height="15" fill="#FFA000" opacity="0.8"/>
  <rect x="440" y="150" width="10" height="15" fill="#FFA000" opacity="0.6"/>
  <rect x="400" y="175" width="10" height="15" fill="#FFA000" opacity="0.6"/>
  <rect x="420" y="175" width="10" height="15" fill="#FFA000" opacity="0.7"/>
  <rect x="440" y="175" width="10" height="15" fill="#FFA000" opacity="0.8"/>
  <rect x="400" y="200" width="10" height="15" fill="#FFA000" opacity="0.8"/>
  <rect x="420" y="200" width="10" height="15" fill="#FFA000" opacity="0.7"/>
  <rect x="440" y="200" width="10" height="15" fill="#FFA000" opacity="0.6"/>
  <!-- 顶部标志 -->
  <circle cx="425" cy="25" r="15" fill="#FFECB3" opacity="0.8"/>
  
  <!-- 建筑4 - 娱乐中心 -->
  <rect x="500" y="140" width="100" height="100" fill="#311B92"/>
  <!-- 霓虹灯装饰 -->
  <rect x="500" y="130" width="100" height="5" fill="#FF4081" opacity="0.8"/>
  <rect x="500" y="140" width="5" height="100" fill="#FF4081" opacity="0.8"/>
  <rect x="595" y="140" width="5" height="100" fill="#FF4081" opacity="0.8"/>
  <rect x="500" y="235" width="100" height="5" fill="#FF4081" opacity="0.8"/>
  <!-- 窗户灯光 -->
  <rect x="520" y="160" width="15" height="20" fill="#CE93D8" opacity="0.8"/>
  <rect x="545" y="160" width="15" height="20" fill="#CE93D8" opacity="0.7"/>
  <rect x="570" y="160" width="15" height="20" fill="#CE93D8" opacity="0.8"/>
  <rect x="520" y="190" width="15" height="20" fill="#CE93D8" opacity="0.7"/>
  <rect x="545" y="190" width="15" height="20" fill="#CE93D8" opacity="0.8"/>
  <rect x="570" y="190" width="15" height="20" fill="#CE93D8" opacity="0.7"/>
  
  <!-- 建筑5 - 住宅区 -->
  <rect x="640" y="170" width="70" height="70" fill="#37474F"/>
  <!-- 窗户灯光 -->
  <rect x="650" y="180" width="10" height="15" fill="#FFE082" opacity="0.7"/>
  <rect x="670" y="180" width="10" height="15" fill="#FFE082" opacity="0.6"/>
  <rect x="690" y="180" width="10" height="15" fill="#FFE082" opacity="0.7"/>
  <rect x="650" y="205" width="10" height="15" fill="#FFE082" opacity="0.6"/>
  <rect x="670" y="205" width="10" height="15" fill="#FFE082" opacity="0.7"/>
  <rect x="690" y="205" width="10" height="15" fill="#FFE082" opacity="0.6"/>
  <!-- 屋顶 -->
  <polygon points="640,170 675,140 710,170" fill="#455A64"/>
  
  <!-- 建筑6 - 体育场 -->
  <ellipse cx="750" cy="200" rx="40" ry="20" fill="#455A64"/>
  <ellipse cx="750" cy="200" rx="30" ry="15" fill="#1A237E"/>
  <!-- 照明灯 -->
  <circle cx="720" cy="190" r="5" fill="white" opacity="0.9"/>
  <circle cx="780" cy="190" r="5" fill="white" opacity="0.9"/>
  <circle cx="750" cy="185" r="5" fill="white" opacity="0.9"/>
  <circle cx="730" cy="185" r="5" fill="white" opacity="0.9"/>
  <circle cx="770" cy="185" r="5" fill="white" opacity="0.9"/>
  
  <!-- 道路网络 - 夜晚发光 -->
  <!-- 主干道 -->
  <rect y="240" width="800" height="20" fill="#424242"/>
  <!-- 发光标记 -->
  <rect x="40" y="249" width="20" height="2" fill="#FFEB3B" opacity="0.8"/>
  <rect x="100" y="249" width="20" height="2" fill="#FFEB3B" opacity="0.8"/>
  <rect x="160" y="249" width="20" height="2" fill="#FFEB3B" opacity="0.8"/>
  <rect x="220" y="249" width="20" height="2" fill="#FFEB3B" opacity="0.8"/>
  <rect x="280" y="249" width="20" height="2" fill="#FFEB3B" opacity="0.8"/>
  <rect x="340" y="249" width="20" height="2" fill="#FFEB3B" opacity="0.8"/>
  <rect x="400" y="249" width="20" height="2" fill="#FFEB3B" opacity="0.8"/>
  <rect x="460" y="249" width="20" height="2" fill="#FFEB3B" opacity="0.8"/>
  <rect x="520" y="249" width="20" height="2" fill="#FFEB3B" opacity="0.8"/>
  <rect x="580" y="249" width="20" height="2" fill="#FFEB3B" opacity="0.8"/>
  <rect x="640" y="249" width="20" height="2" fill="#FFEB3B" opacity="0.8"/>
  <rect x="700" y="249" width="20" height="2" fill="#FFEB3B" opacity="0.8"/>
  <rect x="760" y="249" width="20" height="2" fill="#FFEB3B" opacity="0.8"/>
  
  <!-- 垂直道路 -->
  <rect x="200" y="260" width="20" height="140" fill="#424242"/>
  <rect x="400" y="260" width="20" height="140" fill="#424242"/>
  <rect x="600" y="260" width="20" height="140" fill="#424242"/>
  
  <!-- 发光标记 -->
  <rect x="209" y="270" width="2" height="10" fill="#FFEB3B" opacity="0.8"/>
  <rect x="209" y="290" width="2" height="10" fill="#FFEB3B" opacity="0.8"/>
  <rect x="209" y="310" width="2" height="10" fill="#FFEB3B" opacity="0.8"/>
  <rect x="209" y="330" width="2" height="10" fill="#FFEB3B" opacity="0.8"/>
  <rect x="209" y="350" width="2" height="10" fill="#FFEB3B" opacity="0.8"/>
  <rect x="209" y="370" width="2" height="10" fill="#FFEB3B" opacity="0.8"/>
  
  <rect x="409" y="270" width="2" height="10" fill="#FFEB3B" opacity="0.8"/>
  <rect x="409" y="290" width="2" height="10" fill="#FFEB3B" opacity="0.8"/>
  <rect x="409" y="310" width="2" height="10" fill="#FFEB3B" opacity="0.8"/>
  <rect x="409" y="330" width="2" height="10" fill="#FFEB3B" opacity="0.8"/>
  <rect x="409" y="350" width="2" height="10" fill="#FFEB3B" opacity="0.8"/>
  <rect x="409" y="370" width="2" height="10" fill="#FFEB3B" opacity="0.8"/>
  
  <rect x="609" y="270" width="2" height="10" fill="#FFEB3B" opacity="0.8"/>
  <rect x="609" y="290" width="2" height="10" fill="#FFEB3B" opacity="0.8"/>
  <rect x="609" y="310" width="2" height="10" fill="#FFEB3B" opacity="0.8"/>
  <rect x="609" y="330" width="2" height="10" fill="#FFEB3B" opacity="0.8"/>
  <rect x="609" y="350" width="2" height="10" fill="#FFEB3B" opacity="0.8"/>
  <rect x="609" y="370" width="2" height="10" fill="#FFEB3B" opacity="0.8"/>
  
  <!-- 车辆 -->
  <rect x="150" y="242" width="30" height="16" rx="3" fill="#FF5252"/>
  <rect x="150" y="242" width="20" height="8" rx="2" fill="#FFEB3B" opacity="0.8"/>
  <circle cx="155" cy="258" r="4" fill="#212121"/>
  <circle cx="175" cy="258" r="4" fill="#212121"/>
  
  <rect x="350" y="242" width="30" height="16" rx="3" fill="#2196F3"/>
  <rect x="360" y="242" width="20" height="8" rx="2" fill="#FFEB3B" opacity="0.8"/>
  <circle cx="355" cy="258" r="4" fill="#212121"/>
  <circle cx="375" cy="258" r="4" fill="#212121"/>
  
  <rect x="480" y="242" width="30" height="16" rx="3" fill="#4CAF50"/>
  <rect x="480" y="242" width="20" height="8" rx="2" fill="#FFEB3B" opacity="0.8"/>
  <circle cx="485" cy="258" r="4" fill="#212121"/>
  <circle cx="505" cy="258" r="4" fill="#212121"/>
  
  <!-- 游戏界面元素 -->
  <rect y="350" width="800" height="50" fill="#212121" opacity="0.7"/>
  
  <!-- 资源图标 -->
  <circle cx="50" cy="375" r="15" fill="#FFD700" opacity="0.9"/>
  <text x="80" y="380" font-family="Arial" font-size="16" fill="white">85000</text>
  
  <circle cx="200" cy="375" r="15" fill="#C0C0C0" opacity="0.9"/>
  <text x="230" y="380" font-family="Arial" font-size="16" fill="white">32000</text>
  
  <circle cx="350" cy="375" r="15" fill="#8B4513" opacity="0.9"/>
  <text x="380" y="380" font-family="Arial" font-size="16" fill="white">15000</text>
  
  <circle cx="500" cy="375" r="15" fill="#4682B4" opacity="0.9"/>
  <text x="530" y="380" font-family="Arial" font-size="16" fill="white">9000</text>
  
  <circle cx="650" cy="375" r="15" fill="#32CD32" opacity="0.9"/>
  <text x="680" y="380" font-family="Arial" font-size="16" fill="white">98%</text>
  
  <!-- 建筑菜单 -->
  <rect x="730" y="360" width="60" height="30" rx="5" fill="#FFA000" opacity="0.9"/>
  <text x="740" y="380" font-family="Arial" font-size="14" fill="white">建造</text>
</svg> 