<?xml version="1.0" encoding="UTF-8"?>
<svg width="800" height="400" viewBox="0 0 800 400" fill="none" xmlns="http://www.w3.org/2000/svg">
  <!-- 背景 -->
  <rect width="800" height="400" fill="#87CEEB"/>
  
  <!-- 远景山丘 -->
  <path d="M0 200 Q 100 150 200 180 Q 300 200 400 170 Q 500 140 600 180 Q 700 210 800 190 L 800 400 L 0 400 Z" fill="#4CAF50" opacity="0.7"/>
  
  <!-- 地面 -->
  <rect y="240" width="800" height="160" fill="#8B4513"/>
  
  <!-- 建筑1 - 高楼 -->
  <rect x="100" y="100" width="80" height="140" fill="#708090"/>
  <rect x="110" y="110" width="15" height="20" fill="#ADD8E6"/>
  <rect x="135" y="110" width="15" height="20" fill="#ADD8E6"/>
  <rect x="155" y="110" width="15" height="20" fill="#ADD8E6"/>
  <rect x="110" y="140" width="15" height="20" fill="#ADD8E6"/>
  <rect x="135" y="140" width="15" height="20" fill="#ADD8E6"/>
  <rect x="155" y="140" width="15" height="20" fill="#ADD8E6"/>
  <rect x="110" y="170" width="15" height="20" fill="#ADD8E6"/>
  <rect x="135" y="170" width="15" height="20" fill="#ADD8E6"/>
  <rect x="155" y="170" width="15" height="20" fill="#ADD8E6"/>
  <rect x="110" y="200" width="15" height="20" fill="#ADD8E6"/>
  <rect x="135" y="200" width="15" height="20" fill="#ADD8E6"/>
  <rect x="155" y="200" width="15" height="20" fill="#ADD8E6"/>
  
  <!-- 建筑2 - 商业区 -->
  <rect x="220" y="150" width="100" height="90" fill="#4682B4"/>
  <rect x="230" y="160" width="20" height="30" fill="#F5F5F5"/>
  <rect x="260" y="160" width="20" height="30" fill="#F5F5F5"/>
  <rect x="290" y="160" width="20" height="30" fill="#F5F5F5"/>
  <rect x="230" y="200" width="20" height="30" fill="#F5F5F5"/>
  <rect x="260" y="200" width="20" height="30" fill="#F5F5F5"/>
  <rect x="290" y="200" width="20" height="30" fill="#F5F5F5"/>
  
  <!-- 建筑3 - 摩天大楼 -->
  <rect x="360" y="50" width="60" height="190" fill="#A9A9A9"/>
  <rect x="370" y="60" width="10" height="15" fill="#FFD700"/>
  <rect x="390" y="60" width="10" height="15" fill="#FFD700"/>
  <rect x="370" y="85" width="10" height="15" fill="#FFD700"/>
  <rect x="390" y="85" width="10" height="15" fill="#FFD700"/>
  <rect x="370" y="110" width="10" height="15" fill="#FFD700"/>
  <rect x="390" y="110" width="10" height="15" fill="#FFD700"/>
  <rect x="370" y="135" width="10" height="15" fill="#FFD700"/>
  <rect x="390" y="135" width="10" height="15" fill="#FFD700"/>
  <rect x="370" y="160" width="10" height="15" fill="#FFD700"/>
  <rect x="390" y="160" width="10" height="15" fill="#FFD700"/>
  <rect x="370" y="185" width="10" height="15" fill="#FFD700"/>
  <rect x="390" y="185" width="10" height="15" fill="#FFD700"/>
  <rect x="370" y="210" width="10" height="15" fill="#FFD700"/>
  <rect x="390" y="210" width="10" height="15" fill="#FFD700"/>
  
  <!-- 建筑4 - 政府大楼 -->
  <rect x="460" y="120" width="120" height="120" fill="#CD5C5C"/>
  <rect x="500" y="80" width="40" height="40" fill="#CD5C5C"/>
  <rect x="510" y="40" width="20" height="40" fill="#CD5C5C"/>
  <!-- 门 -->
  <rect x="510" y="200" width="20" height="40" fill="#8B4513"/>
  <!-- 窗户 -->
  <rect x="480" y="140" width="15" height="20" fill="#F5F5F5"/>
  <rect x="510" y="140" width="15" height="20" fill="#F5F5F5"/>
  <rect x="545" y="140" width="15" height="20" fill="#F5F5F5"/>
  <rect x="480" y="170" width="15" height="20" fill="#F5F5F5"/>
  <rect x="545" y="170" width="15" height="20" fill="#F5F5F5"/>
  
  <!-- 建筑5 - 住宅区 -->
  <rect x="620" y="180" width="70" height="60" fill="#FFB6C1"/>
  <rect x="630" y="190" width="10" height="15" fill="#F5F5F5"/>
  <rect x="650" y="190" width="10" height="15" fill="#F5F5F5"/>
  <rect x="670" y="190" width="10" height="15" fill="#F5F5F5"/>
  <rect x="630" y="215" width="10" height="15" fill="#F5F5F5"/>
  <rect x="650" y="215" width="10" height="15" fill="#F5F5F5"/>
  <rect x="670" y="215" width="10" height="15" fill="#F5F5F5"/>
  
  <!-- 屋顶 -->
  <polygon points="620,180 655,150 690,180" fill="#FF6347"/>
  
  <!-- 建筑6 - 工厂 -->
  <rect x="720" y="150" width="60" height="90" fill="#696969"/>
  <rect x="740" y="100" width="20" height="50" fill="#696969"/>
  <!-- 工厂窗户 -->
  <rect x="730" y="170" width="10" height="15" fill="#F5F5F5"/>
  <rect x="750" y="170" width="10" height="15" fill="#F5F5F5"/>
  <rect x="770" y="170" width="10" height="15" fill="#F5F5F5"/>
  <rect x="730" y="195" width="10" height="15" fill="#F5F5F5"/>
  <rect x="750" y="195" width="10" height="15" fill="#F5F5F5"/>
  <rect x="770" y="195" width="10" height="15" fill="#F5F5F5"/>
  
  <!-- 道路 -->
  <rect y="240" width="800" height="20" fill="#808080"/>
  <!-- 道路标记 -->
  <rect x="40" y="249" width="20" height="2" fill="#FFFFFF"/>
  <rect x="100" y="249" width="20" height="2" fill="#FFFFFF"/>
  <rect x="160" y="249" width="20" height="2" fill="#FFFFFF"/>
  <rect x="220" y="249" width="20" height="2" fill="#FFFFFF"/>
  <rect x="280" y="249" width="20" height="2" fill="#FFFFFF"/>
  <rect x="340" y="249" width="20" height="2" fill="#FFFFFF"/>
  <rect x="400" y="249" width="20" height="2" fill="#FFFFFF"/>
  <rect x="460" y="249" width="20" height="2" fill="#FFFFFF"/>
  <rect x="520" y="249" width="20" height="2" fill="#FFFFFF"/>
  <rect x="580" y="249" width="20" height="2" fill="#FFFFFF"/>
  <rect x="640" y="249" width="20" height="2" fill="#FFFFFF"/>
  <rect x="700" y="249" width="20" height="2" fill="#FFFFFF"/>
  <rect x="760" y="249" width="20" height="2" fill="#FFFFFF"/>
  
  <!-- 垂直道路 -->
  <rect x="400" y="260" width="20" height="140" fill="#808080"/>
  <!-- 垂直道路标记 -->
  <rect x="409" y="270" width="2" height="10" fill="#FFFFFF"/>
  <rect x="409" y="290" width="2" height="10" fill="#FFFFFF"/>
  <rect x="409" y="310" width="2" height="10" fill="#FFFFFF"/>
  <rect x="409" y="330" width="2" height="10" fill="#FFFFFF"/>
  <rect x="409" y="350" width="2" height="10" fill="#FFFFFF"/>
  <rect x="409" y="370" width="2" height="10" fill="#FFFFFF"/>
  
  <!-- 树木 -->
  <circle cx="50" y="220" r="15" fill="#228B22"/>
  <rect x="47" y="235" width="6" height="10" fill="#8B4513"/>
  
  <circle cx="80" y="225" r="12" fill="#228B22"/>
  <rect x="77" y="237" width="6" height="8" fill="#8B4513"/>
  
  <circle cx="600" y="220" r="15" fill="#228B22"/>
  <rect x="597" y="235" width="6" height="10" fill="#8B4513"/>
  
  <circle cx="630" y="225" r="12" fill="#228B22"/>
  <rect x="627" y="237" width="6" height="8" fill="#8B4513"/>
  
  <!-- 建设中标志 -->
  <g transform="translate(190, 80)">
    <rect width="40" height="40" fill="#FFD700" opacity="0.7" rx="5"/>
    <rect x="15" y="5" width="10" height="30" fill="#FF0000"/>
    <rect x="5" y="15" width="30" height="10" fill="#FF0000"/>
  </g>
  
  <!-- 游戏界面元素 -->
  <rect y="350" width="800" height="50" fill="#333333" opacity="0.7"/>
  <!-- 资源图标 -->
  <circle cx="50" cy="375" r="15" fill="#FFD700"/>
  <text x="80" y="380" font-family="Arial" font-size="16" fill="white">10000</text>
  
  <circle cx="200" cy="375" r="15" fill="#C0C0C0"/>
  <text x="230" y="380" font-family="Arial" font-size="16" fill="white">5000</text>
  
  <circle cx="350" cy="375" r="15" fill="#8B4513"/>
  <text x="380" y="380" font-family="Arial" font-size="16" fill="white">3000</text>
  
  <circle cx="500" cy="375" r="15" fill="#4682B4"/>
  <text x="530" y="380" font-family="Arial" font-size="16" fill="white">2000</text>
  
  <circle cx="650" cy="375" r="15" fill="#32CD32"/>
  <text x="680" y="380" font-family="Arial" font-size="16" fill="white">95%</text>
  
  <!-- 太阳 -->
  <circle cx="750" cy="50" r="30" fill="#FFD700"/>
  <line x1="750" y1="10" x2="750" y2="0" stroke="#FFD700" stroke-width="4"/>
  <line x1="750" y1="100" x2="750" y2="90" stroke="#FFD700" stroke-width="4"/>
  <line x1="710" y1="50" x2="700" y2="50" stroke="#FFD700" stroke-width="4"/>
  <line x1="800" y1="50" x2="790" y2="50" stroke="#FFD700" stroke-width="4"/>
  <line x1="722" y1="22" x2="715" y2="15" stroke="#FFD700" stroke-width="4"/>
  <line x1="778" y1="78" x2="785" y2="85" stroke="#FFD700" stroke-width="4"/>
  <line x1="722" y1="78" x2="715" y2="85" stroke="#FFD700" stroke-width="4"/>
  <line x1="778" y1="22" x2="785" y2="15" stroke="#FFD700" stroke-width="4"/>
</svg> 